<svg xmlns="http://www.w3.org/2000/svg" viewBox="0 0 211.88 314.04"><defs><style>.cls-1{opacity:0.1;}.cls-2{fill:#fff;}</style></defs><title>Asset 5</title><g id="Layer_2" data-name="Layer 2"><g id="Objects"><g id="Elements" class="cls-1"><path class="cls-2" d="M114.2,240.12l-5.85,2.75.25,3.24-3.76,1.77-1.06-17.94,4.46-2.1L120,240.73l-3.76,1.77Zm-6.11-.55,4-1.87-4.54-5.2Z"/><path class="cls-2" d="M101.52,61.4a5.49,5.49,0,0,1,4.24,1.67,6.48,6.48,0,0,1,1.55,4.58,6.51,6.51,0,0,1-1.55,4.58,6.19,6.19,0,0,1-8.48,0,6.51,6.51,0,0,1-1.54-4.58,6.48,6.48,0,0,1,1.54-4.58,5.48,5.48,0,0,1,4.24-1.67m0,2.58a1.77,1.77,0,0,0-1.61,1,5.33,5.33,0,0,0-.57,2.71,5.41,5.41,0,0,0,.57,2.73,1.82,1.82,0,0,0,3.21,0,5.5,5.5,0,0,0,.56-2.73,5.34,5.34,0,0,0-.57-2.71,1.76,1.76,0,0,0-1.59-1m3,21.25h-3.2L114.81,61.4H118Zm13.29-12.51A5.52,5.52,0,0,1,122,74.39,6.44,6.44,0,0,1,123.58,79,6.52,6.52,0,0,1,122,83.55a6.2,6.2,0,0,1-8.5,0A6.5,6.5,0,0,1,112,79a6.42,6.42,0,0,1,1.56-4.56,5.52,5.52,0,0,1,4.25-1.67m0,2.59a1.77,1.77,0,0,0-1.6.95,5.34,5.34,0,0,0-.56,2.7,5.4,5.4,0,0,0,.56,2.72,1.76,1.76,0,0,0,1.6.95,1.74,1.74,0,0,0,1.59-.95,5.45,5.45,0,0,0,.55-2.72,5.39,5.39,0,0,0-.56-2.7,1.75,1.75,0,0,0-1.59-.95"/><g id="idea"><path class="cls-2" d="M26.71,107.38a.58.58,0,0,1-.56-.59,6.49,6.49,0,0,0-6.28-6.67.6.6,0,0,1,0-1.19,7.65,7.65,0,0,1,7.4,7.86A.58.58,0,0,1,26.71,107.38Z"/><polygon class="cls-2" points="22.01 122.34 21.16 122.19 22.83 111.46 23.68 111.61 22.01 122.34 22.01 122.34"/><polygon class="cls-2" points="17.73 122.34 16.07 111.61 16.91 111.46 18.58 122.19 17.73 122.34 17.73 122.34"/><path class="cls-2" d="M23.2,113c-.35,0-.5-.36-.62-.63,0-.11-.14-.34-.2-.34s-.15.23-.2.34c-.11.27-.26.63-.61.63s-.5-.36-.61-.63c0-.11-.14-.34-.2-.34s-.15.23-.2.34c-.11.27-.26.63-.62.63s-.5-.36-.62-.63c0-.11-.14-.34-.19-.34s-.15.23-.2.34c-.11.27-.26.63-.61.63s-.5-.36-.61-.63c0-.11-.14-.34-.2-.34s-.15.23-.2.34c-.11.27-.26.63-.62.63v-.48c.05,0,.15-.23.2-.34.11-.27.27-.63.62-.63s.5.36.62.63c0,.11.14.34.2.34s.15-.23.2-.34c.11-.27.26-.63.61-.63s.5.36.61.63c0,.11.14.34.2.34s.15-.23.2-.34c.11-.27.26-.63.61-.63s.5.36.61.63c0,.11.14.34.2.34s.15-.23.2-.34c.11-.27.26-.63.61-.63s.5.36.61.63c0,.11.14.34.2.34V113Z"/><path class="cls-2" d="M19.87,93.62a.58.58,0,0,1-.56-.59V86.78a.56.56,0,1,1,1.12,0V93A.58.58,0,0,1,19.87,93.62Z"/><path class="cls-2" d="M26.58,95.53a.52.52,0,0,1-.28-.08.61.61,0,0,1-.2-.81L29,89.23A.54.54,0,0,1,29.8,89a.61.61,0,0,1,.2.81l-2.94,5.41A.56.56,0,0,1,26.58,95.53Z"/><path class="cls-2" d="M31.5,100.75a.55.55,0,0,1-.49-.3.61.61,0,0,1,.21-.81l5.09-3.12a.55.55,0,0,1,.77.22.62.62,0,0,1-.21.81l-5.09,3.12A.53.53,0,0,1,31.5,100.75Z"/><path class="cls-2" d="M39.37,107.88H33.3a.6.6,0,0,1,0-1.19h6.07a.6.6,0,0,1,0,1.19Z"/><path class="cls-2" d="M36.6,118.13a.54.54,0,0,1-.28-.08l-5.09-3.12a.61.61,0,0,1-.2-.81.54.54,0,0,1,.76-.22L36.88,117a.62.62,0,0,1,.2.81A.56.56,0,0,1,36.6,118.13Z"/><path class="cls-2" d="M13.15,95.53a.56.56,0,0,1-.49-.3L9.73,89.83A.62.62,0,0,1,9.93,89a.55.55,0,0,1,.77.22l2.94,5.41a.62.62,0,0,1-.2.81A.53.53,0,0,1,13.15,95.53Z"/><path class="cls-2" d="M8.24,100.75a.52.52,0,0,1-.28-.08L2.86,97.55a.62.62,0,0,1-.2-.81.54.54,0,0,1,.77-.22l5.09,3.12a.62.62,0,0,1,.2.81A.56.56,0,0,1,8.24,100.75Z"/><path class="cls-2" d="M6.44,107.89H.56a.6.6,0,0,1,0-1.19H6.44a.6.6,0,0,1,0,1.19Z"/><path class="cls-2" d="M3.15,118.14a.55.55,0,0,1-.48-.3.61.61,0,0,1,.2-.81L8,113.91a.54.54,0,0,1,.77.22.62.62,0,0,1-.2.81l-5.09,3.12A.53.53,0,0,1,3.15,118.14Z"/><path class="cls-2" d="M24.84,122.52h-10a1,1,0,0,1-.94-1,1.23,1.23,0,0,1,0-.13,7.53,7.53,0,0,0-.69-3.85,20.65,20.65,0,0,1-4.1-10.76c0-6.27,4.8-11.37,10.7-11.37s10.71,5.1,10.71,11.37a20.66,20.66,0,0,1-4.11,10.78c-.71,1-.74,3.17-.71,3.79a1.22,1.22,0,0,1,0,.17A1,1,0,0,1,24.84,122.52Zm-10-2a1,1,0,0,0-.92.84A1,1,0,0,1,14.88,120.53Zm10.12,0a.92.92,0,0,1,.36.15A.91.91,0,0,0,25,120.55Zm-9.16,0h8.06c0-.45.05-.82.05-.83a6.93,6.93,0,0,1,1-3.34,18.59,18.59,0,0,0,3.73-9.57,9.13,9.13,0,0,0-8.84-9.38A9.13,9.13,0,0,0,11,106.79a18.59,18.59,0,0,0,3.72,9.56,6.88,6.88,0,0,1,1,3.36S15.81,120.09,15.83,120.53Z"/><path class="cls-2" d="M24.52,124.64h-9.3a1,1,0,0,1,0-2h9.3a1,1,0,0,1,0,2Z"/><path class="cls-2" d="M23.83,126.76H15.91a1,1,0,0,1,0-2h7.92a1,1,0,0,1,0,2Z"/><path class="cls-2" d="M22.67,128.83h-5.6a1,1,0,0,1,0-2h5.6a1,1,0,0,1,0,2Z"/></g><path class="cls-2" d="M61.5,285.43a9.51,9.51,0,0,0-14,0,11,11,0,0,0,0,14.89,9.51,9.51,0,0,0,14,0A11,11,0,0,0,61.5,285.43Zm-12.27,13a8.24,8.24,0,0,1,0-11.16,7.13,7.13,0,0,1,10.51,0,8.24,8.24,0,0,1,0,11.16A7.13,7.13,0,0,1,49.23,298.46Z"/><path class="cls-2" d="M39.18,313.2a2.59,2.59,0,0,1-3.82,0h0a3,3,0,0,1,0-4.06l7.42-7.88a2.59,2.59,0,0,1,3.82,0h0a3,3,0,0,1,0,4.06Z"/><path class="cls-2" d="M43.74,305.7a.9.9,0,0,1-1.33,0h0a1,1,0,0,1,0-1.41l5.4-5.73a.9.9,0,0,1,1.33,0h0a1,1,0,0,1,0,1.41Z"/><path class="cls-2" d="M58.34,288.79a7.6,7.6,0,0,1,.4,9.81c.15-.13.3-.27.44-.42a7.59,7.59,0,0,0,0-10.28,6.57,6.57,0,0,0-9.68,0c-.14.15-.27.31-.4.47A6.55,6.55,0,0,1,58.34,288.79Z"/><polygon class="cls-2" points="210.97 175.9 207.55 177.94 205.73 174.5 204.1 175.47 205.92 178.91 202.68 180.85 203.6 182.57 206.84 180.64 208.76 184.27 210.39 183.3 208.46 179.67 211.88 177.63 210.97 175.9"/><polygon class="cls-2" points="26.14 186.23 22.73 188.27 20.91 184.83 19.28 185.81 21.1 189.24 17.86 191.18 18.78 192.9 22.02 190.97 23.94 194.6 25.57 193.63 23.64 190 27.06 187.96 26.14 186.23"/><polygon class="cls-2" points="179.58 277.22 176.16 279.26 174.34 275.83 172.71 276.8 174.53 280.24 171.29 282.17 172.21 283.9 175.45 281.96 177.37 285.59 179 284.62 177.07 280.99 180.49 278.95 179.58 277.22"/><polygon class="cls-2" points="189.13 72.54 185.71 74.58 183.89 71.14 182.26 72.11 184.08 75.55 180.85 77.49 181.76 79.21 185 77.28 186.92 80.91 188.55 79.94 186.63 76.31 190.04 74.27 189.13 72.54"/><path class="cls-2" d="M64,5.5,61.57,7,58.83,4a.46.46,0,0,0-.32-.15.44.44,0,0,0-.33.12l-.77.73L52.62,1.11A.46.46,0,0,0,52.24,1a.43.43,0,0,0-.29.24l-.36.81L46.23,0a.47.47,0,0,0-.4,0,.42.42,0,0,0-.2.34l-.5,12.38L42.66.54A.46.46,0,0,0,42,.24L37.29,3l-.52-.82A.48.48,0,0,0,36.45,2a.44.44,0,0,0-.36.1L31.83,5.69l-.74-.56a.45.45,0,0,0-.59,0L26.73,8.91a.41.41,0,0,0-.12.32l-1.83-.71L28.63,32.3l17.91,8.18L65.72,29.37ZM52.55,2.14l4.23,3.14-9.67,9.23Zm-1.31.74-5.3,12.05L46.5,1.06ZM41.91,1.32l2.7,13.39L37.76,3.79ZM36.29,3.1l.48.76h0l6.59,10.49L32.56,6.24ZM27.38,9.53h0l3.49-3.47L44.1,16Zm20,6L58.49,4.89l2.32,2.54Z"/></g></g></g></svg>