<svg xmlns="http://www.w3.org/2000/svg" viewBox="0 0 653.93 586.16"><defs><style>.cls-1{opacity:0.1;}.cls-2{fill:#fff;}</style></defs><title>Asset 3</title><g id="Layer_2" data-name="Layer 2"><g id="Objects"><g id="Elements" class="cls-1"><path class="cls-2" d="M518.06,336.55,507.95,341l.43,5.28-6.5,2.88L500.05,320l7.71-3.42,20.4,21-6.5,2.88Zm-10.56-.89,6.87-3-7.85-8.46Z"/><path class="cls-2" d="M239.41,107.83a9.79,9.79,0,0,1,7.32,2.71,11.74,11.74,0,0,1,0,14.91,11.19,11.19,0,0,1-14.64,0,11.75,11.75,0,0,1,0-14.91,9.78,9.78,0,0,1,7.32-2.71m0,4.2a3.1,3.1,0,0,0-2.78,1.55,8.26,8.26,0,0,0-1,4.41,8.38,8.38,0,0,0,1,4.44,3.24,3.24,0,0,0,5.54,0,8.51,8.51,0,0,0,1-4.44,8.27,8.27,0,0,0-1-4.41,3.08,3.08,0,0,0-2.75-1.55m5.13,34.57H239l23.35-38.77h5.56Zm23-20.35a9.86,9.86,0,0,1,7.34,2.7,10.11,10.11,0,0,1,2.68,7.43,10.24,10.24,0,0,1-2.68,7.47,11.19,11.19,0,0,1-14.68,0,10.19,10.19,0,0,1-2.69-7.47,10.07,10.07,0,0,1,2.69-7.42,9.86,9.86,0,0,1,7.35-2.72m0,4.21a3.09,3.09,0,0,0-2.76,1.54,8.27,8.27,0,0,0-1,4.39,8.36,8.36,0,0,0,1,4.42,3.08,3.08,0,0,0,2.77,1.54,3,3,0,0,0,2.75-1.54,8.44,8.44,0,0,0,1-4.42,8.35,8.35,0,0,0-1-4.39,3.06,3.06,0,0,0-2.74-1.54"/><g id="idea"><path class="cls-2" d="M46.14,282.09a1,1,0,0,1-1-1,10.86,10.86,0,0,0-10.85-10.84,1,1,0,0,1,0-1.94,12.8,12.8,0,0,1,12.79,12.78A1,1,0,0,1,46.14,282.09Z"/><polygon class="cls-2" points="38.01 306.43 36.55 306.18 39.44 288.73 40.9 288.98 38.01 306.43 38.01 306.43"/><polygon class="cls-2" points="30.64 306.43 27.75 288.98 29.21 288.73 32.1 306.18 30.64 306.43 30.64 306.43"/><path class="cls-2" d="M40.07,291.19c-.61,0-.87-.59-1.06-1-.08-.18-.25-.55-.34-.55s-.26.37-.34.55c-.19.43-.46,1-1.06,1s-.87-.59-1.06-1c-.08-.18-.24-.55-.34-.55s-.26.37-.34.55c-.19.43-.46,1-1.06,1s-.87-.59-1.06-1c-.08-.18-.24-.55-.34-.55s-.26.37-.34.55c-.19.43-.45,1-1.06,1s-.87-.59-1.06-1c-.08-.18-.25-.55-.34-.55s-.26.37-.34.55c-.19.43-.46,1-1.06,1v-.79c.09,0,.26-.37.34-.55.2-.43.46-1,1.06-1s.87.59,1.06,1c.08.18.25.55.34.55s.26-.37.34-.55c.19-.43.45-1,1.06-1s.87.59,1.06,1c.08.18.25.55.34.55s.26-.37.34-.55c.19-.43.45-1,1.06-1s.87.59,1.05,1c.08.18.25.55.34.55s.26-.37.34-.55c.19-.43.45-1,1.06-1s.87.59,1.06,1c.08.18.25.55.34.55v.79Z"/><path class="cls-2" d="M34.32,259.7a1,1,0,0,1-1-1V248.58a1,1,0,0,1,1.94,0v10.16A1,1,0,0,1,34.32,259.7Z"/><path class="cls-2" d="M45.92,262.81a1,1,0,0,1-.48-.13,1,1,0,0,1-.35-1.32l5.08-8.8a1,1,0,1,1,1.67,1l-5.07,8.8A1,1,0,0,1,45.92,262.81Z"/><path class="cls-2" d="M54.42,271.3a1,1,0,0,1-.48-1.8l8.79-5.08a1,1,0,1,1,1,1.68l-8.79,5.08A1,1,0,0,1,54.42,271.3Z"/><path class="cls-2" d="M68,282.9H57.53a1,1,0,1,1,0-1.94H68a1,1,0,0,1,0,1.94Z"/><path class="cls-2" d="M63.22,299.58a1,1,0,0,1-.48-.13l-8.8-5.08a1,1,0,0,1,1-1.68l8.8,5.08a1,1,0,0,1-.49,1.81Z"/><path class="cls-2" d="M22.72,262.82a1,1,0,0,1-.84-.48l-5.08-8.79a1,1,0,0,1,1.68-1l5.07,8.8a1,1,0,0,1-.84,1.45Z"/><path class="cls-2" d="M14.23,271.31a1,1,0,0,1-.48-.13l-8.8-5.08a1,1,0,1,1,1-1.67l8.8,5.08a1,1,0,0,1-.49,1.8Z"/><path class="cls-2" d="M11.12,282.91H1A1,1,0,1,1,1,281H11.12a1,1,0,1,1,0,1.94Z"/><path class="cls-2" d="M5.44,299.59A1,1,0,0,1,5,297.79l8.8-5.08a1,1,0,0,1,1,1.68l-8.8,5.08A1,1,0,0,1,5.44,299.59Z"/><path class="cls-2" d="M42.91,306.72H25.71a1.62,1.62,0,0,1-1.62-1.61,1.88,1.88,0,0,1,0-.21c.1-1.16,0-4.68-1.19-6.26-6.89-8.88-7.09-17.43-7.09-17.51a18.49,18.49,0,1,1,37,0c0,.08-.19,8.63-7.1,17.53-1.23,1.62-1.28,5.16-1.22,6.17a1.87,1.87,0,0,1,0,.28A1.61,1.61,0,0,1,42.91,306.72Zm-17.21-3.23a1.61,1.61,0,0,0-1.59,1.37A1.61,1.61,0,0,1,25.71,303.49Zm17.47,0a1.65,1.65,0,0,1,.62.25A1.63,1.63,0,0,0,43.18,303.51Zm-15.83,0H41.28c0-.73.09-1.34.09-1.36a10.82,10.82,0,0,1,1.79-5.44c6.21-8,6.44-15.5,6.44-15.57a15.27,15.27,0,1,0-30.53,0c0,.07.23,7.58,6.42,15.55a10.75,10.75,0,0,1,1.78,5.46S27.32,302.77,27.35,303.49Z"/><path class="cls-2" d="M42.36,310.18H26.29a1.61,1.61,0,1,1,0-3.23H42.36a1.61,1.61,0,1,1,0,3.23Z"/><path class="cls-2" d="M41.17,313.63H27.48a1.61,1.61,0,1,1,0-3.23H41.17a1.61,1.61,0,0,1,0,3.23Z"/><path class="cls-2" d="M39.16,317H29.49a1.61,1.61,0,0,1,0-3.23h9.67a1.61,1.61,0,1,1,0,3.23Z"/></g><path class="cls-2" d="M648.91,330.86a17.12,17.12,0,1,0,0,24.22A17.12,17.12,0,0,0,648.91,330.86ZM627.72,352a12.84,12.84,0,1,1,18.16,0A12.84,12.84,0,0,1,627.72,352Z"/><path class="cls-2" d="M610.35,376a4.67,4.67,0,0,1-6.6,0h0a4.67,4.67,0,0,1,0-6.61l12.82-12.82a4.67,4.67,0,0,1,6.6,0h0a4.67,4.67,0,0,1,0,6.61Z"/><path class="cls-2" d="M618.24,363.83a1.62,1.62,0,0,1-2.29,0h0a1.62,1.62,0,0,1,0-2.29l9.32-9.32a1.62,1.62,0,0,1,2.29,0h0a1.62,1.62,0,0,1,0,2.29Z"/><path class="cls-2" d="M643.45,336.32a11.83,11.83,0,0,1,.69,16c.26-.22.52-.45.77-.69a11.83,11.83,0,1,0-16.73-16.73c-.25.25-.47.5-.69.77A11.82,11.82,0,0,1,643.45,336.32Z"/><path class="cls-2" d="M379.57,330h0v-15.3a.88.88,0,0,0-1.09-.86l-13,3.16a.88.88,0,0,0-.67.85v13.56a3.19,3.19,0,0,0-.61-.06,5.5,5.5,0,0,0-2.28.57c-1.76.83-3.48,2.61-3.17,4.26a2.15,2.15,0,0,0,2.34,1.65,5.47,5.47,0,0,0,2.28-.57c1.71-.81,3.37-2.5,3.19-4.1h0V322.66l11.24-2.73v8.35a3.3,3.3,0,0,0-.61-.06,5.47,5.47,0,0,0-2.28.57c-1.77.83-3.48,2.61-3.17,4.26a2.15,2.15,0,0,0,2.34,1.65,5.46,5.46,0,0,0,2.28-.57C378.09,333.32,379.75,331.63,379.57,330Z"/><path class="cls-2" d="M477.46,92.55h0V77.25a.88.88,0,0,0-1.09-.86l-13,3.16a.88.88,0,0,0-.67.85V94a3.19,3.19,0,0,0-.61-.06,5.49,5.49,0,0,0-2.28.57c-1.76.83-3.48,2.61-3.17,4.26a2.15,2.15,0,0,0,2.34,1.65,5.47,5.47,0,0,0,2.28-.57c1.71-.81,3.37-2.5,3.19-4.1h0V85.18l11.24-2.73v8.35a3.31,3.31,0,0,0-.61-.06,5.47,5.47,0,0,0-2.28.57c-1.77.83-3.48,2.61-3.17,4.26A2.15,2.15,0,0,0,472,97.21a5.46,5.46,0,0,0,2.28-.57C476,95.84,477.64,94.15,477.46,92.55Z"/><polygon class="cls-2" points="428.47 294.1 422.56 297.42 419.42 291.83 416.61 293.41 419.76 299 414.16 302.15 415.74 304.96 421.34 301.81 424.66 307.71 427.47 306.13 424.15 300.23 430.05 296.91 428.47 294.1"/><polygon class="cls-2" points="109.2 310.9 103.3 314.23 100.15 308.63 97.34 310.21 100.49 315.81 94.89 318.95 96.47 321.76 102.07 318.62 105.39 324.52 108.2 322.94 104.88 317.04 110.78 313.71 109.2 310.9"/><polygon class="cls-2" points="534.52 572.54 528.62 575.87 525.48 570.27 522.66 571.85 525.81 577.45 520.22 580.59 521.8 583.4 527.39 580.25 530.72 586.16 533.52 584.58 530.2 578.67 536.11 575.35 534.52 572.54"/><polygon class="cls-2" points="516.47 2.27 510.57 5.59 507.42 0 504.61 1.58 507.76 7.17 502.17 10.32 503.75 13.13 509.34 9.98 512.66 15.89 515.47 14.31 512.15 8.4 518.05 5.08 516.47 2.27"/><path class="cls-2" d="M585.46,177.55l-4.63,1.92-3.72-6a.78.78,0,0,0-1.1-.23l-1.55,1.08-7.06-7.53a.78.78,0,0,0-1.22.11l-.87,1.32-8.52-5a.8.8,0,0,0-.71,0,.78.78,0,0,0-.45.54l-4.86,21.6-.27-22.15a.78.78,0,0,0-1.07-.71l-8.94,3.66-.62-1.58a.8.8,0,0,0-.48-.46.77.77,0,0,0-.65.07l-8.47,5.15-1.08-1.17a.77.77,0,0,0-1-.1l-7.67,5.57a.77.77,0,0,0-.31.53l-2.91-1.73-1.09,42.77,28,19.13,36.44-14.39Zm-18.53-9,6.23,6.65-19.55,13.63Zm-2.48.95-13,19.75,5.44-24.2ZM549,164.32l.3,24.23-8.21-21ZM538.76,166l.57,1.46h0l7.89,20.18-15.87-17.14Zm-17.35,8.91h0l7.11-5.17,19.44,21Zm32.27,15.85L576.22,175l3.15,5.07Z"/><path class="cls-2" d="M157.83,497.44l-1.24,4.36-6.32-.73a.7.7,0,0,0-.78.65l-.11,1.71-9.29.77a.7.7,0,0,0-.61.92l.45,1.36-8.34,3.21a.72.72,0,0,0-.43.47.7.7,0,0,0,.13.62l12.57,15.56L128,514.1a.7.7,0,0,0-1.1.36l-2.43,8.38L123,522.4a.72.72,0,0,0-.59.08.7.7,0,0,0-.31.5l-1.1,8.89-1.44.11a.7.7,0,0,0-.65.67l-.36,8.56a.7.7,0,0,0,.2.52l-2.86,1.09,29.67,24.78,29.29-9.11,10.27-33.87Zm-16.74,8.09,8.2-.68L148,526.33Zm-.72,2.29,6.7,20.27L133,510.65Zm-12.39,8,17.32,13.39-19.47-6ZM123.41,524l1.35.42h0l18.71,5.74-21,1.61ZM120,541.27h0l.33-7.93,25.78-2Zm29.33-13.94,1.53-24.78,5.36.62Z"/><path class="cls-2" d="M174.59,16.89l-4.2,2.38-4.72-4.87a.82.82,0,0,0-.56-.25.79.79,0,0,0-.57.2l-1.33,1.19-8.28-5.8a.84.84,0,0,0-.66-.13.73.73,0,0,0-.51.39l-.61,1.31L143.9,8a.86.86,0,0,0-.7.06.67.67,0,0,0-.34.55L142,28.74,137.73,8.83a.75.75,0,0,0-.46-.53.83.83,0,0,0-.72,0l-8.1,4.55-.89-1.34a.83.83,0,0,0-.55-.34.8.8,0,0,0-.62.16L119,17.19l-1.28-.9a.82.82,0,0,0-1,.05l-6.51,6.09A.65.65,0,0,0,110,23l-3.16-1.15,6.66,38.68,30.95,13.31,33.12-18.07Zm-19.78-5.48,7.31,5.11-16.7,15Zm-2.26,1.2L143.4,32.23l1-22.56Zm-16.12-2.53,4.67,21.78L129.27,14.11Zm-9.7,2.9.82,1.24h0l11.38,17.07L120.28,18.09Zm-15.4,10.45h0l6-5.65L140.21,34Zm34.49,9.76,19.26-17.31,4,4.13Z"/></g></g></g></svg>