<svg xmlns="http://www.w3.org/2000/svg" viewBox="0 0 111.24 111.24"><defs><style>.cls-1{fill:#fe414d;}.cls-2{fill:#931a3d;}.cls-3{fill:#f58b1f;}.cls-4{fill:#ffe63b;}</style></defs><title>Asset 2</title><g id="Layer_2" data-name="Layer 2"><g id="OBJECTS"><g id="_Group_" data-name="&lt;Group&gt;"><g id="_Group_2" data-name="&lt;Group&gt;"><path id="_Path_" data-name="&lt;Path&gt;" class="cls-1" d="M55.62,55.62v55.62h0A55.62,55.62,0,0,1,0,55.62H55.62Z"/><path id="_Path_2" data-name="&lt;Path&gt;" class="cls-2" d="M55.62,55.62H0V0H0A55.62,55.62,0,0,1,55.62,55.62Z"/><path id="_Path_3" data-name="&lt;Path&gt;" class="cls-3" d="M111.24,55.62h0a55.62,55.62,0,0,1-55.62,55.62h0a55.62,55.62,0,0,1,55.62-55.62Z"/><path id="_Path_4" data-name="&lt;Path&gt;" class="cls-4" d="M111.24,55.62h0A55.62,55.62,0,0,1,55.62,0h0A55.62,55.62,0,0,1,111.24,55.62Z"/></g></g></g></g></svg>